<svg width="24" height="24" viewBox="0 0 24 24" fill="none" xmlns="http://www.w3.org/2000/svg">
  <defs>
    <linearGradient id="rig" x1="3" y1="3" x2="17" y2="19" gradientUnits="userSpaceOnUse">
      <stop stop-color="#C4B5FD"/>
      <stop offset="1" stop-color="#60A5FA"/>
    </linearGradient>
    <linearGradient id="arrow" x1="15" y1="7" x2="21" y2="21" gradientUnits="userSpaceOnUse">
      <stop stop-color="#67E8F9"/>
      <stop offset="1" stop-color="#38BDF8"/>
    </linearGradient>
  </defs>
  <circle cx="8.5" cy="4.2" r="2" fill="url(#rig)"/>
  <path d="M8.5 6.7V12.2M8.5 8.2L4.6 10.5M8.5 8.2L12.4 10.5M8.5 12.2L5.7 17M8.5 12.2L11.3 17" stroke="url(#rig)" stroke-width="1.8" stroke-linecap="round" stroke-linejoin="round"/>
  <circle cx="4.6" cy="10.5" r="1" fill="#A78BFA"/>
  <circle cx="12.4" cy="10.5" r="1" fill="#818CF8"/>
  <circle cx="5.7" cy="17" r="1" fill="#7DD3FC"/>
  <circle cx="11.3" cy="17" r="1" fill="#60A5FA"/>
  <path d="M17.5 7.5V16.2M14.7 13.5L17.5 16.3L20.3 13.5M14.2 20H20.8" stroke="url(#arrow)" stroke-width="1.9" stroke-linecap="round" stroke-linejoin="round"/>
  <path d="M3.2 6.8C2.2 9.1 2.4 12 3.9 14" stroke="#A78BFA" stroke-width="1.2" stroke-linecap="round" opacity="0.72"/>
</svg>
